<svg width="192" height="178" viewBox="0 0 192 178" fill="none" xmlns="http://www.w3.org/2000/svg">
<path d="M189.779 145.131C190.781 143.627 191.453 141.928 191.751 140.146C192.049 138.363 191.965 136.538 191.507 134.79C190.843 132.267 189.472 130.169 187.611 128.662C188.507 127.189 189.095 125.548 189.339 123.84C189.876 120.126 188.643 116.418 185.869 113.394C183.711 111.041 180.657 109.746 177.277 109.746C176.884 109.746 176.484 109.767 176.076 109.807C178.638 101.619 179.937 93.0891 179.928 84.5101C179.928 37.8381 142.092 0 95.4195 0C48.746 0 10.9053 37.8345 10.9053 84.5101C10.8969 93.0671 12.1891 101.576 14.7375 109.745H14.648C11.2675 109.745 8.21429 111.039 6.05539 113.392C3.28299 116.413 2.04879 120.125 2.58539 123.838C2.82989 125.546 3.41829 127.187 4.31499 128.661C2.45299 130.167 1.08109 132.265 0.417494 134.788C-0.040206 136.537 -0.122707 138.362 0.175593 140.145C0.473893 141.928 1.14599 143.627 2.14809 145.131C1.96919 145.409 1.80549 145.696 1.65079 145.991C-0.0198067 149.162 -0.127106 152.745 1.34759 156.082C3.58339 161.139 9.13809 165.123 19.9246 169.4C26.632 172.06 32.7743 173.761 32.8289 173.776C41.7007 176.077 49.7245 177.246 56.6706 177.246C68.0765 177.246 76.5865 174.126 82.0215 167.962C91.2175 169.421 100.589 169.367 109.768 167.804C115.196 174.072 123.755 177.246 135.257 177.246C142.203 177.246 150.227 176.077 159.098 173.776C159.153 173.761 165.293 172.06 172.003 169.4C182.79 165.123 188.346 161.139 190.581 156.082C192.055 152.745 191.948 149.162 190.277 145.991C190.125 145.694 189.956 145.406 189.779 145.131ZM78.1325 158.312C77.6875 159.093 77.1875 159.891 76.6305 160.706C75.2255 162.763 73.3775 164.335 71.2325 165.503C67.1318 167.739 61.9427 168.52 56.6706 168.52C48.3419 168.52 39.8037 166.571 35.0182 165.33C34.7829 165.269 5.68419 157.05 9.36889 150.054C9.98769 148.877 11.0091 148.407 12.2933 148.407C17.4804 148.407 26.9254 156.131 30.9847 156.131C31.8916 156.131 32.531 155.745 32.7922 154.803C34.5218 148.599 6.49899 145.991 8.85909 137.007C9.27579 135.417 10.4054 134.771 11.9937 134.771C18.8514 134.77 34.2428 146.831 37.4623 146.831C37.7092 146.831 37.8863 146.758 37.982 146.606C37.9963 146.583 38.0106 146.561 38.024 146.537C39.5345 144.042 38.6679 142.228 28.3161 135.888C27.9941 135.691 27.6629 135.49 27.3225 135.283C15.9314 128.389 7.93609 124.24 12.4838 119.29C13.007 118.719 13.7484 118.466 14.649 118.466C15.7177 118.466 17.0109 118.823 18.4347 119.423C24.4508 121.96 32.7886 128.879 36.272 131.896C37.2987 132.791 37.9042 133.337 37.9042 133.337C37.9042 133.337 42.314 137.923 44.9809 137.923C45.5947 137.923 46.115 137.681 46.4681 137.083C48.3599 133.895 28.9054 119.153 27.809 113.07C27.0649 108.949 28.3304 106.861 30.6708 106.861C31.7834 106.861 33.1419 107.335 34.6399 108.286C39.2904 111.237 48.2684 126.665 51.555 132.667C52.657 134.678 54.5385 135.528 56.2334 135.528C59.5963 135.528 62.2253 132.185 56.5412 127.937C47.9985 121.545 50.9962 111.097 55.0735 110.454C55.2471 110.426 55.4227 110.412 55.5982 110.412C59.3064 110.412 60.9419 116.801 60.9419 116.801C60.9419 116.801 65.7355 128.839 73.9705 137.068C81.4425 144.537 82.4865 150.666 78.1325 158.312ZM104.761 159.722L104.334 159.773C104.091 159.801 103.849 159.829 103.606 159.856C103.223 159.896 102.839 159.934 102.454 159.969L102.079 160.003L101.736 160.032L101.25 160.071C101.071 160.085 100.892 160.098 100.713 160.11L100.177 160.145L100.058 160.153C99.9185 160.161 99.7785 160.17 99.6365 160.177L99.4575 160.187C99.2915 160.196 99.1255 160.204 98.9575 160.211L98.3765 160.236L97.8495 160.254L97.4975 160.264H97.3185C97.2085 160.264 97.0995 160.27 96.9895 160.271C96.9315 160.271 96.8735 160.271 96.8155 160.271C96.7055 160.271 96.5965 160.271 96.4865 160.276L96.0385 160.282C95.8305 160.282 95.6235 160.282 95.4135 160.282C94.9225 160.282 94.4325 160.277 93.9445 160.267L93.5485 160.258C93.4355 160.258 93.3225 160.253 93.2115 160.249L92.7915 160.237L92.2705 160.217L91.8005 160.196L91.6795 160.191L91.2325 160.168C91.1075 160.161 90.9845 160.155 90.8605 160.146L90.5715 160.129C90.2075 160.106 89.8445 160.081 89.4825 160.053L89.1025 160.022C88.9425 160.01 88.7825 159.995 88.6235 159.981C88.4365 159.965 88.2495 159.947 88.0625 159.929C87.7485 159.9 87.4355 159.868 87.1235 159.834H87.1085C91.6785 149.639 89.3675 140.117 80.1325 130.89C74.0755 124.841 70.0465 115.909 69.2105 113.948C67.5189 108.143 63.0404 101.69 55.6036 101.69C54.9748 101.69 54.3469 101.74 53.7259 101.838C50.4676 102.351 47.6192 104.226 45.5874 107.048C43.3916 104.317 41.2579 102.146 39.327 100.92C36.4178 99.0751 33.5139 98.1391 30.6842 98.1391C27.1534 98.1391 23.9974 99.5891 21.7973 102.219L21.7419 102.286C21.6998 102.113 21.6596 101.94 21.6184 101.766L21.6131 101.743C21.4897 101.21 21.3704 100.674 21.2554 100.134C21.0664 99.2341 20.8937 98.3281 20.7375 97.4151C20.6779 97.0571 20.6183 96.6961 20.5587 96.3311C20.5587 96.3191 20.5587 96.3071 20.5533 96.2951C20.5319 96.1581 20.5113 96.0201 20.4907 95.8831C20.4782 95.8021 20.4657 95.7191 20.454 95.6381C20.4335 95.4981 20.4129 95.3571 20.3932 95.2161C20.3673 95.0321 20.3414 94.8471 20.3172 94.6631C20.2931 94.4781 20.268 94.2931 20.2448 94.1081C20.2215 93.9231 20.1992 93.7381 20.1768 93.5531C20.1544 93.3681 20.1357 93.2001 20.116 93.0241L20.1106 92.9801C20.0707 92.6141 20.0325 92.2481 19.9961 91.8791C19.9621 91.5261 19.9306 91.1721 19.9013 90.8181C19.8933 90.7291 19.8861 90.6341 19.879 90.5411C19.8665 90.3851 19.8549 90.2271 19.8432 90.0691C19.8334 89.9401 19.8244 89.8101 19.8164 89.6801C19.8164 89.6491 19.8119 89.6191 19.8101 89.5901C19.7985 89.4171 19.7869 89.2421 19.777 89.0681C19.7654 88.8791 19.7555 88.6911 19.7457 88.5021C19.7359 88.3131 19.7261 88.1251 19.718 87.9351C19.7109 87.7701 19.7037 87.6051 19.6974 87.4391L19.6921 87.2891C19.6867 87.1371 19.6813 86.9841 19.6769 86.8321L19.6661 86.4431C19.6661 86.2881 19.659 86.1331 19.6563 85.9781C19.6536 85.8231 19.65 85.6531 19.6483 85.4891C19.6465 85.3251 19.6483 85.1631 19.6438 85.0001C19.6393 84.8361 19.6438 84.6731 19.6438 84.5101C19.6438 42.6573 53.5747 8.7265 95.4315 8.7265C137.287 8.7265 171.217 42.6554 171.217 84.5101C171.217 84.6731 171.217 84.8361 171.217 85.0001C171.217 85.1631 171.217 85.3261 171.217 85.4891C171.217 85.6521 171.213 85.8161 171.21 85.9781C171.21 86.1131 171.203 86.2461 171.199 86.3831C171.199 86.5031 171.195 86.6241 171.191 86.7401C171.191 86.8931 171.181 87.0461 171.176 87.1991V87.2111C171.169 87.3901 171.163 87.5671 171.156 87.7421C171.149 87.8971 171.143 88.0531 171.135 88.2081L171.13 88.3181C171.122 88.4831 171.111 88.6481 171.102 88.8141C171.095 88.9461 171.088 89.0761 171.079 89.2071C171.031 90.0011 170.971 90.7931 170.9 91.5821C170.887 91.7201 170.874 91.8591 170.861 91.9981C170.861 92.0021 170.861 92.0061 170.861 92.0111C170.844 92.1851 170.828 92.3591 170.809 92.5331C170.794 92.6701 170.78 92.8071 170.764 92.9441C170.735 93.2121 170.704 93.4811 170.674 93.7481L170.624 94.1551C170.603 94.3141 170.582 94.4741 170.561 94.6341C170.538 94.8081 170.514 94.9831 170.488 95.1561C170.462 95.3511 170.433 95.5451 170.404 95.7391L170.335 96.1981C170.308 96.3721 170.28 96.5441 170.253 96.7181C170.225 96.8911 170.196 97.0631 170.163 97.2351C170.13 97.4081 170.104 97.5801 170.074 97.7521C170.014 98.0961 169.951 98.4401 169.885 98.7831C169.821 99.1111 169.757 99.4391 169.691 99.7661C169.653 99.9511 169.615 100.136 169.576 100.32C169.54 100.49 169.502 100.658 169.465 100.827C169.429 100.996 169.39 101.166 169.352 101.335C167.219 99.2621 164.394 98.1331 161.279 98.1331C158.452 98.1331 155.546 99.0681 152.637 100.913C150.707 102.139 148.573 104.311 146.376 107.041C144.341 104.219 141.494 102.344 138.238 101.831C137.617 101.733 136.988 101.683 136.359 101.683C128.92 101.683 124.445 108.136 122.752 113.941C121.912 115.902 117.882 124.834 111.82 130.892C102.591 140.09 100.263 149.569 104.761 159.722ZM183.003 139.313C182.993 139.342 182.983 139.37 182.973 139.402C182.952 139.46 182.929 139.516 182.906 139.573C182.871 139.657 182.834 139.74 182.794 139.824C182.767 139.88 182.739 139.935 182.71 139.989C182.636 140.127 182.554 140.263 182.465 140.397C182.357 140.558 182.241 140.718 182.113 140.876C182.051 140.953 181.985 141.031 181.917 141.108C181.871 141.16 181.827 141.212 181.775 141.263C181.704 141.339 181.63 141.415 181.555 141.49C180.209 142.824 178.157 143.994 175.837 145.067C175.574 145.186 175.307 145.305 175.038 145.425L174.77 145.544C174.591 145.623 174.411 145.701 174.223 145.778C174.044 145.856 173.859 145.934 173.673 146.01L173.115 146.24C171.81 146.777 170.473 147.289 169.169 147.794L168.611 148.011L168.059 148.227C167.692 148.37 167.331 148.513 166.975 148.656L166.443 148.87L165.921 149.083L165.665 149.191C165.494 149.262 165.327 149.333 165.16 149.404C161.323 151.051 158.563 152.726 159.143 154.804C159.159 154.863 159.177 154.919 159.197 154.974C159.249 155.128 159.319 155.273 159.408 155.41C159.46 155.491 159.52 155.568 159.587 155.638C160.269 156.347 161.511 156.235 163.076 155.672C163.202 155.626 163.332 155.577 163.464 155.526C163.553 155.492 163.642 155.456 163.731 155.419L163.867 155.363C164.225 155.211 164.605 155.041 164.992 154.857C165.089 154.811 165.187 154.767 165.285 154.716C167.199 153.78 169.368 152.52 171.52 151.373C171.85 151.194 172.181 151.022 172.51 150.852C173.058 150.569 173.602 150.298 174.137 150.048C176.175 149.089 178.092 148.409 179.632 148.409C180.355 148.409 180.993 148.557 181.525 148.897L181.613 148.956C181.67 148.996 181.727 149.038 181.781 149.083C181.981 149.248 182.158 149.437 182.307 149.648C182.351 149.71 182.396 149.776 182.436 149.843C182.477 149.91 182.518 149.981 182.557 150.054C183.318 151.499 182.68 152.995 181.189 154.462C179.758 155.871 177.533 157.252 175.003 158.53C174.815 158.625 174.627 158.72 174.436 158.813C166.906 162.511 157.045 165.296 156.908 165.331C154.28 166.012 150.522 166.906 146.288 167.575L145.661 167.673L145.559 167.688C145.333 167.722 145.106 167.755 144.878 167.787C144.631 167.822 144.382 167.856 144.133 167.889C143.65 167.954 143.162 168.013 142.671 168.068L142.581 168.078C140.826 168.277 139.027 168.422 137.223 168.484H137.197C136.549 168.507 135.903 168.519 135.255 168.519C135.151 168.519 135.047 168.519 134.943 168.519H134.854C134.739 168.519 134.623 168.519 134.507 168.519C134.131 168.514 133.756 168.504 133.382 168.49C132.767 168.468 132.155 168.433 131.548 168.385C131.525 168.385 131.5 168.385 131.477 168.379C131.246 168.361 131.015 168.341 130.786 168.318C130.663 168.307 130.543 168.294 130.421 168.28C130.055 168.241 129.689 168.197 129.328 168.148C129.088 168.115 128.847 168.08 128.613 168.041C128.378 168.003 128.129 167.962 127.888 167.92C127.778 167.9 127.668 167.879 127.559 167.858L127.534 167.853C127.185 167.786 126.84 167.714 126.498 167.634C126.298 167.589 126.099 167.545 125.902 167.491L125.783 167.461C125.685 167.437 125.59 167.411 125.493 167.385L125.44 167.371L125.132 167.281C125.02 167.25 124.908 167.216 124.796 167.183L124.757 167.172L124.466 167.083C124.356 167.049 124.246 167.013 124.137 166.977C124.048 166.948 123.959 166.917 123.869 166.888L123.672 166.819C123.482 166.752 123.293 166.683 123.106 166.611L122.928 166.541L122.781 166.483C122.495 166.368 122.214 166.249 121.936 166.125L121.751 166.035L121.72 166.021C121.654 165.99 121.589 165.959 121.523 165.932C121.394 165.87 121.266 165.806 121.139 165.741L121.1 165.722L120.916 165.625C120.706 165.514 120.499 165.4 120.296 165.281C120.181 165.215 120.067 165.148 119.955 165.079L119.783 164.973C119.694 164.919 119.612 164.865 119.527 164.809L119.303 164.661C119.222 164.606 119.142 164.551 119.062 164.495L118.918 164.392C118.766 164.284 118.617 164.172 118.471 164.057C118.393 163.997 118.315 163.936 118.238 163.878C118.146 163.803 118.053 163.727 117.962 163.65C117.885 163.587 117.81 163.521 117.735 163.455L117.729 163.45C117.648 163.379 117.569 163.308 117.49 163.235C117.412 163.164 117.334 163.092 117.258 163.019L117.249 163.01C117.17 162.934 117.091 162.857 117.014 162.778C116.937 162.7 116.858 162.622 116.783 162.542C116.708 162.463 116.631 162.382 116.557 162.299C116.483 162.217 116.415 162.142 116.345 162.061L116.322 162.034C116.254 161.956 116.187 161.877 116.121 161.796C115.978 161.625 115.839 161.45 115.705 161.271C115.57 161.091 115.438 160.907 115.309 160.72C115.268 160.658 115.226 160.597 115.186 160.536C115.103 160.414 115.022 160.293 114.943 160.172C114.863 160.051 114.785 159.93 114.707 159.808C114.629 159.689 114.553 159.57 114.479 159.451C114.44 159.391 114.403 159.332 114.368 159.272C114.297 159.159 114.229 159.045 114.161 158.933C114.152 158.918 114.143 158.902 114.133 158.887C114.068 158.777 114.004 158.669 113.942 158.56C113.906 158.501 113.873 158.443 113.84 158.381C113.807 158.319 113.769 158.256 113.734 158.193C113.714 158.16 113.696 158.127 113.677 158.094C113.659 158.061 113.653 158.051 113.642 158.03C113.575 157.91 113.509 157.789 113.445 157.667C113.415 157.613 113.386 157.559 113.355 157.507L113.266 157.334L113.176 157.163C113.118 157.048 113.061 156.931 113.005 156.816C112.976 156.759 112.948 156.702 112.922 156.645C112.864 156.523 112.807 156.401 112.752 156.281C112.729 156.232 112.707 156.183 112.687 156.134C112.635 156.02 112.585 155.908 112.538 155.795C112.514 155.738 112.49 155.682 112.467 155.626C112.421 155.513 112.378 155.401 112.332 155.29C112.31 155.236 112.288 155.183 112.269 155.129C112.182 154.903 112.101 154.679 112.026 154.455C112.006 154.4 111.987 154.344 111.97 154.29C111.937 154.189 111.905 154.09 111.875 153.99C111.82 153.815 111.77 153.64 111.724 153.467C111.708 153.412 111.694 153.358 111.68 153.303C111.637 153.14 111.598 152.977 111.562 152.814C111.537 152.706 111.514 152.598 111.493 152.49C111.482 152.435 111.471 152.38 111.462 152.327C111.441 152.218 111.422 152.111 111.405 152.004C111.378 151.843 111.355 151.682 111.335 151.521C111.327 151.468 111.321 151.415 111.315 151.362C111.31 151.309 111.304 151.255 111.298 151.2C111.276 150.986 111.259 150.774 111.249 150.562C111.249 150.508 111.244 150.454 111.242 150.402C111.237 150.295 111.235 150.19 111.234 150.084C111.178 145.811 113.34 141.703 117.963 137.082C126.198 128.855 130.992 116.816 130.992 116.816C130.992 116.816 131.121 116.311 131.389 115.584C131.426 115.483 131.466 115.379 131.51 115.27C131.56 115.14 131.614 115.005 131.673 114.866C131.751 114.681 131.837 114.489 131.93 114.294C131.964 114.22 131.999 114.147 132.036 114.073C132.049 114.048 132.063 114.023 132.076 113.998C132.1 113.949 132.124 113.898 132.15 113.849C132.293 113.575 132.449 113.298 132.619 113.027C132.665 112.954 132.709 112.882 132.76 112.809C132.858 112.663 132.96 112.52 133.064 112.381C133.116 112.311 133.17 112.243 133.225 112.175C133.314 112.064 133.411 111.954 133.508 111.847C133.547 111.805 133.585 111.763 133.626 111.723C134.103 111.23 134.649 110.828 135.266 110.614L135.344 110.588C135.396 110.571 135.448 110.555 135.501 110.54C135.562 110.524 135.623 110.51 135.686 110.497L135.714 110.491C135.844 110.465 135.976 110.448 136.109 110.439H136.12C136.189 110.439 136.26 110.432 136.331 110.432C136.42 110.432 136.502 110.432 136.589 110.441C136.679 110.449 136.769 110.459 136.859 110.473C137.601 110.591 138.307 111.033 138.915 111.715C138.943 111.746 138.971 111.778 138.997 111.81C139.138 111.975 139.268 112.148 139.389 112.326C139.44 112.399 139.488 112.474 139.535 112.551C139.655 112.743 139.769 112.946 139.876 113.16C139.919 113.249 139.959 113.331 139.999 113.419C140.02 113.464 140.04 113.508 140.059 113.554C140.098 113.644 140.136 113.733 140.173 113.828C140.209 113.917 140.245 114.015 140.279 114.11C140.437 114.557 140.565 115.015 140.658 115.48C140.68 115.587 140.7 115.694 140.719 115.802C140.784 116.193 140.828 116.586 140.852 116.981C140.86 117.096 140.865 117.212 140.868 117.328C140.876 117.601 140.876 117.878 140.868 118.157C140.864 118.264 140.86 118.37 140.852 118.477C140.782 119.489 140.582 120.487 140.26 121.448C140.204 121.615 140.144 121.782 140.081 121.949C140.039 122.06 139.992 122.172 139.947 122.284C139.858 122.505 139.754 122.731 139.645 122.949C139.564 123.114 139.479 123.28 139.387 123.445C139.327 123.555 139.264 123.665 139.201 123.775C139.04 124.049 138.867 124.321 138.68 124.592L138.566 124.754C138.412 124.968 138.249 125.181 138.078 125.393C137.77 125.773 137.441 126.137 137.094 126.482C136.564 127.013 135.996 127.504 135.395 127.952C134.852 128.353 134.34 128.793 133.861 129.27C133.809 129.323 133.756 129.376 133.706 129.429C132.203 131.006 131.853 132.398 132.191 133.453C132.207 133.502 132.224 133.549 132.242 133.595C132.269 133.666 132.3 133.734 132.331 133.801C132.353 133.846 132.377 133.89 132.402 133.932C132.503 134.106 132.624 134.266 132.76 134.412C132.777 134.431 132.795 134.449 132.812 134.467L132.867 134.521C132.921 134.573 132.977 134.624 133.038 134.674L133.098 134.722C133.138 134.753 133.181 134.784 133.223 134.812C133.331 134.888 133.443 134.958 133.559 135.022C133.606 135.047 133.648 135.072 133.701 135.096C133.875 135.181 134.054 135.254 134.238 135.313C134.289 135.33 134.339 135.345 134.391 135.361L134.456 135.378L134.546 135.402L134.624 135.421L134.708 135.439L134.79 135.456L134.869 135.469C134.927 135.479 134.988 135.489 135.048 135.496L135.104 135.505L135.208 135.515L135.272 135.522L135.378 135.529H135.439L135.549 135.535H135.598H135.701H135.747H135.895L135.994 135.529L136.109 135.522L136.247 135.509L136.378 135.494C136.408 135.494 136.437 135.486 136.467 135.48C136.533 135.471 136.601 135.46 136.667 135.447C136.831 135.416 136.992 135.377 137.152 135.33C137.315 135.283 137.477 135.227 137.635 135.164C137.687 135.142 137.741 135.12 137.794 135.097C137.883 135.058 137.973 135.017 138.055 134.973C138.125 134.939 138.194 134.901 138.262 134.862C138.364 134.804 138.466 134.743 138.566 134.676C138.795 134.526 139.01 134.358 139.212 134.173C139.26 134.13 139.308 134.084 139.354 134.04C139.377 134.018 139.399 133.997 139.421 133.973C139.465 133.928 139.509 133.884 139.553 133.835C139.64 133.74 139.726 133.641 139.809 133.536C140.023 133.267 140.213 132.98 140.378 132.678C141.713 130.24 143.986 126.245 146.529 122.164C146.627 122.007 146.726 121.85 146.824 121.693C146.922 121.537 147.021 121.379 147.12 121.222C147.268 120.983 147.419 120.748 147.568 120.514L147.717 120.28C147.817 120.123 147.919 119.966 148.02 119.811C148.423 119.185 148.828 118.567 149.236 117.956L149.542 117.5C150.154 116.593 150.763 115.711 151.368 114.873L151.669 114.458C152.116 113.841 152.564 113.249 153.003 112.691C153.246 112.382 153.486 112.084 153.723 111.797L154.005 111.459C154.052 111.403 154.095 111.347 154.146 111.293C154.239 111.183 154.332 111.076 154.423 110.972C154.469 110.919 154.512 110.867 154.561 110.815C154.653 110.712 154.742 110.611 154.829 110.513C154.873 110.464 154.92 110.415 154.964 110.366C155.099 110.221 155.231 110.082 155.361 109.949C155.451 109.859 155.533 109.77 155.619 109.686C156.126 109.168 156.685 108.703 157.288 108.3L157.428 108.21C157.474 108.18 157.517 108.152 157.568 108.121C157.657 108.065 157.748 108.012 157.844 107.96C160.208 106.618 162.165 106.519 163.292 107.646C163.974 108.328 164.352 109.459 164.331 111.033C164.331 111.102 164.331 111.172 164.326 111.244C164.326 111.269 164.326 111.295 164.326 111.321C164.326 111.393 164.319 111.465 164.313 111.538C164.313 111.628 164.303 111.717 164.294 111.807C164.285 111.896 164.28 111.964 164.271 112.044C164.271 112.066 164.268 112.089 164.264 112.113C164.258 112.182 164.248 112.253 164.238 112.324C164.238 112.345 164.238 112.367 164.23 112.389C164.221 112.462 164.211 112.537 164.199 112.611C164.197 112.632 164.194 112.652 164.189 112.672C164.178 112.762 164.163 112.846 164.147 112.934C164.139 112.984 164.131 113.033 164.122 113.083C164.096 113.225 164.062 113.365 164.021 113.503C163.978 113.648 163.927 113.797 163.868 113.951C163.828 114.052 163.785 114.155 163.738 114.261C163.692 114.366 163.641 114.472 163.587 114.58C163.48 114.796 163.359 115.019 163.225 115.248C163.158 115.362 163.087 115.478 163.014 115.595C162.977 115.653 162.94 115.712 162.902 115.774C162.788 115.953 162.668 116.134 162.544 116.317C162.42 116.5 162.287 116.686 162.145 116.876C161.96 117.128 161.764 117.384 161.559 117.645L161.404 117.842C161.142 118.169 160.866 118.503 160.578 118.844C160.405 119.048 160.229 119.253 160.048 119.461C159.928 119.599 159.806 119.737 159.682 119.877L159.494 120.087C159.242 120.368 158.987 120.651 158.725 120.935L158.527 121.149C158.396 121.292 158.26 121.435 158.128 121.579C157.997 121.722 157.859 121.867 157.721 122.012L157.311 122.445C157.173 122.59 157.033 122.736 156.893 122.881C156.753 123.026 156.614 123.172 156.473 123.317C156.191 123.609 155.909 123.901 155.624 124.193C151.569 128.352 147.296 132.497 145.85 135.081C145.754 135.249 145.667 135.422 145.589 135.6C145.383 136.07 145.296 136.472 145.355 136.797C145.374 136.904 145.411 137.006 145.466 137.1C145.509 137.172 145.556 137.242 145.606 137.308C145.654 137.371 145.707 137.431 145.762 137.487C145.815 137.539 145.871 137.587 145.93 137.631C146.228 137.843 146.586 137.952 146.952 137.942H147.066L147.184 137.933L147.3 137.92L147.397 137.906C147.41 137.904 147.423 137.902 147.438 137.898L147.527 137.881L147.549 137.876L147.648 137.855L147.684 137.846C147.717 137.838 147.753 137.828 147.788 137.818C147.823 137.808 147.871 137.795 147.913 137.781C147.995 137.756 148.077 137.729 148.161 137.698C148.245 137.668 148.341 137.631 148.43 137.593C148.52 137.556 148.608 137.518 148.691 137.476C148.736 137.456 148.782 137.435 148.824 137.413L148.958 137.347C149.131 137.258 149.305 137.163 149.479 137.06C149.618 136.979 149.755 136.894 149.893 136.806L150.027 136.716C150.072 136.688 150.117 136.659 150.16 136.627L150.292 136.538L150.363 136.489C150.427 136.444 150.492 136.399 150.555 136.354C150.734 136.231 150.901 136.104 151.07 135.975L151.085 135.963C151.175 135.894 151.264 135.825 151.354 135.755C151.721 135.465 152.069 135.173 152.385 134.898L152.596 134.714L152.615 134.696L152.725 134.599C152.983 134.367 153.213 134.151 153.404 133.973L153.482 133.896C153.551 133.831 153.614 133.77 153.671 133.718L153.783 133.607L153.824 133.568L153.835 133.557C153.882 133.509 153.923 133.467 153.951 133.44C153.992 133.396 154.017 133.371 154.025 133.363L154.035 133.356L154.07 133.324C154.082 133.312 154.096 133.299 154.113 133.284L154.128 133.271L154.165 133.237L154.368 133.058L154.482 132.956C154.537 132.908 154.599 132.853 154.661 132.794L154.798 132.673C154.823 132.653 154.847 132.631 154.872 132.609L155.014 132.484L155.225 132.299L155.337 132.202C155.772 131.824 156.3 131.367 156.908 130.852L157.158 130.641L157.568 130.296C157.706 130.181 157.847 130.064 157.99 129.945C158.54 129.488 159.131 129.003 159.757 128.5L160.169 128.17C160.519 127.891 160.878 127.607 161.242 127.321C161.389 127.206 161.537 127.091 161.689 126.977C161.912 126.804 162.138 126.63 162.367 126.456C162.513 126.343 162.662 126.231 162.812 126.118C163.67 125.47 164.555 124.821 165.451 124.189L165.835 123.921C166.104 123.736 166.373 123.55 166.641 123.369L166.883 123.205C167.137 123.034 167.391 122.867 167.643 122.701C167.876 122.549 168.107 122.4 168.339 122.254L168.581 122.101L168.822 121.951C169.064 121.801 169.305 121.654 169.544 121.511L169.783 121.368L170.26 121.09C170.417 120.999 170.574 120.909 170.729 120.821L170.824 120.769C170.948 120.7 171.072 120.632 171.195 120.565C171.35 120.481 171.504 120.4 171.658 120.321L171.887 120.203L172.111 120.091C172.189 120.054 172.265 120.015 172.341 119.978C172.788 119.758 173.235 119.558 173.661 119.383C173.732 119.354 173.805 119.324 173.876 119.294C174.017 119.234 174.157 119.18 174.296 119.133C174.435 119.085 174.572 119.037 174.706 118.989C174.829 118.948 174.948 118.909 175.063 118.874L175.104 118.862C175.166 118.842 175.227 118.824 175.288 118.808L175.307 118.803C175.435 118.766 175.561 118.734 175.686 118.704H175.695C175.882 118.66 176.065 118.621 176.243 118.592C176.303 118.581 176.364 118.571 176.423 118.563C176.542 118.545 176.657 118.531 176.772 118.521C176.83 118.515 176.886 118.51 176.943 118.508C177.056 118.5 177.167 118.496 177.275 118.496C177.303 118.496 177.331 118.496 177.359 118.496C177.471 118.496 177.579 118.503 177.686 118.514C177.735 118.514 177.783 118.524 177.831 118.53H177.852C177.9 118.536 177.947 118.543 177.995 118.554C178.042 118.563 178.091 118.571 178.137 118.582H178.152C178.199 118.592 178.241 118.604 178.29 118.618C178.338 118.631 178.384 118.644 178.43 118.661C178.589 118.715 178.742 118.784 178.887 118.867C178.929 118.891 178.968 118.916 179.007 118.943C179.046 118.968 179.086 118.995 179.124 119.024C179.189 119.073 179.253 119.126 179.312 119.183L179.339 119.209C179.357 119.225 179.375 119.242 179.391 119.259L179.439 119.312C179.841 119.733 180.173 120.216 180.423 120.742C180.436 120.772 180.45 120.802 180.462 120.832C180.487 120.891 180.51 120.949 180.531 121.011C180.583 121.154 180.627 121.301 180.661 121.45C180.791 122.041 180.755 122.657 180.559 123.229C180.542 123.282 180.523 123.333 180.503 123.385C180.43 123.58 180.345 123.769 180.247 123.952C180.221 124.001 180.194 124.051 180.165 124.1C179.854 124.624 179.485 125.111 179.066 125.552L178.977 125.647C178.844 125.787 178.706 125.927 178.561 126.067C178.497 126.13 178.43 126.192 178.363 126.255C178.296 126.318 178.227 126.38 178.158 126.444L178.05 126.539C177.979 126.602 177.908 126.665 177.835 126.728C177.688 126.855 177.535 126.982 177.378 127.111C177.337 127.143 177.297 127.175 177.258 127.208C177.099 127.337 176.935 127.466 176.766 127.596C176.468 127.825 176.158 128.055 175.837 128.288C175.559 128.488 175.271 128.689 174.975 128.893C174.617 129.138 174.247 129.386 173.865 129.636C173.185 130.082 172.466 130.539 171.71 131.008C171.502 131.138 171.292 131.268 171.078 131.399C169.11 132.609 166.929 133.903 164.604 135.31L164.003 135.675C163.344 136.077 162.721 136.461 162.135 136.827L161.84 137.012L161.283 137.37C161.063 137.511 160.848 137.649 160.639 137.784C160.481 137.885 160.326 137.985 160.174 138.085L159.878 138.281C159.73 138.377 159.586 138.473 159.445 138.567L159.303 138.657C159.156 138.755 159.013 138.852 158.872 138.948L158.643 139.105L158.374 139.291L158.126 139.464C157.709 139.759 157.321 140.04 156.964 140.307L156.829 140.409C156.678 140.523 156.532 140.637 156.391 140.748C156.328 140.797 156.267 140.846 156.206 140.895C155.897 141.144 155.616 141.382 155.363 141.611L155.238 141.724C155.167 141.789 155.098 141.854 155.031 141.918C154.985 141.963 154.941 142.008 154.893 142.051L154.829 142.115C154.787 142.156 154.746 142.198 154.706 142.239C154.601 142.348 154.503 142.454 154.411 142.557L154.346 142.633C154.199 142.803 154.07 142.966 153.958 143.125L153.908 143.196C153.82 143.324 153.741 143.455 153.667 143.592C153.648 143.626 153.63 143.66 153.613 143.694C153.596 143.728 153.58 143.762 153.564 143.796C153.549 143.83 153.542 143.845 153.531 143.87L153.51 143.92L153.493 143.965C153.485 143.985 153.478 144.005 153.471 144.026C153.463 144.047 153.45 144.083 153.441 144.115C153.409 144.213 153.383 144.313 153.363 144.414C153.358 144.436 153.353 144.46 153.35 144.482C153.346 144.504 153.342 144.527 153.34 144.549C153.337 144.572 153.335 144.591 153.333 144.611L153.326 144.669C153.326 144.693 153.326 144.716 153.326 144.74C153.326 144.763 153.326 144.763 153.326 144.774C153.326 144.801 153.326 144.827 153.326 144.854C153.326 144.881 153.326 144.922 153.326 144.956C153.326 144.965 153.326 144.974 153.326 144.984C153.326 145.01 153.326 145.036 153.333 145.064C153.334 145.08 153.337 145.096 153.339 145.112C153.339 145.138 153.344 145.163 153.348 145.191C153.352 145.217 153.359 145.264 153.367 145.301C153.367 145.301 153.367 145.301 153.367 145.306C153.374 145.341 153.382 145.375 153.391 145.41C153.4 145.445 153.408 145.485 153.419 145.521C153.438 145.592 153.463 145.662 153.488 145.732C153.504 145.774 153.518 145.815 153.535 145.856C153.535 145.864 153.542 145.873 153.546 145.881C153.557 145.907 153.568 145.935 153.581 145.962C153.593 145.989 153.615 146.036 153.632 146.073C153.667 146.147 153.704 146.222 153.745 146.297C153.765 146.334 153.787 146.372 153.809 146.409L153.874 146.523C153.896 146.561 153.92 146.599 153.943 146.637C153.956 146.656 153.969 146.674 153.984 146.691L154.005 146.714L154.031 146.737L154.057 146.757C154.076 146.77 154.095 146.782 154.115 146.792C154.135 146.802 154.155 146.811 154.178 146.82C154.201 146.828 154.225 146.834 154.249 146.84C154.826 146.97 156.013 146.493 157.589 145.661C157.678 145.613 157.775 145.563 157.87 145.511L158.35 145.249L158.585 145.119C158.752 145.03 158.922 144.929 159.096 144.83C159.201 144.771 159.306 144.711 159.413 144.651C161.496 143.452 163.983 141.912 166.555 140.408C166.796 140.267 167.039 140.126 167.281 139.987L167.766 139.676C168.008 139.537 168.251 139.399 168.493 139.262C168.817 139.079 169.142 138.898 169.466 138.719C170.194 138.319 170.921 137.933 171.635 137.569L172.111 137.328C172.427 137.172 172.739 137.02 173.048 136.872C173.358 136.725 173.665 136.584 173.969 136.449C174.271 136.315 174.569 136.186 174.863 136.063L175.199 135.927L175.238 135.911C177.013 135.208 178.622 134.774 179.924 134.774C180.206 134.771 180.487 134.795 180.764 134.843H180.773C180.862 134.859 180.944 134.877 181.027 134.897H181.042C181.11 134.914 181.177 134.934 181.242 134.956C181.294 134.973 181.344 134.99 181.393 135.009C181.442 135.028 181.469 135.039 181.507 135.056C181.558 135.079 181.609 135.102 181.658 135.127C181.707 135.152 181.773 135.189 181.828 135.223C182.037 135.349 182.226 135.505 182.389 135.686C182.461 135.766 182.527 135.851 182.587 135.94C182.608 135.969 182.627 135.998 182.645 136.029C182.683 136.088 182.717 136.148 182.751 136.208C182.794 136.286 182.833 136.367 182.87 136.452C182.906 136.538 182.94 136.625 182.973 136.721C183.005 136.816 183.034 136.909 183.062 137.008C183.273 137.765 183.253 138.568 183.003 139.313Z" fill="#FF9D00"/>
<path fill-rule="evenodd" clip-rule="evenodd" d="M171.206 84.9998V84.5088C171.206 42.6552 137.288 8.72607 95.4307 8.72607C53.5748 8.72607 19.6439 42.6572 19.6439 84.5088C19.6439 84.5638 19.6434 84.6188 19.6429 84.6728C19.6419 84.7818 19.6409 84.8908 19.6439 84.9998C19.6468 85.1038 19.6471 85.2078 19.6474 85.3118C19.6475 85.3708 19.6477 85.4298 19.6483 85.4888C19.6497 85.6078 19.6519 85.7308 19.6541 85.8488C19.6549 85.8928 19.6557 85.9358 19.6564 85.9778C19.6574 86.0378 19.6591 86.0968 19.6608 86.1568C19.6635 86.2518 19.6662 86.3478 19.6662 86.4428L19.677 86.8318C19.6815 86.9838 19.6868 87.1368 19.6922 87.2888L19.6976 87.4388C19.7036 87.5968 19.7103 87.7548 19.7172 87.9118L19.7181 87.9348C19.726 88.1198 19.7356 88.3038 19.7451 88.4878L19.7459 88.5018C19.7557 88.6898 19.7655 88.8788 19.7772 89.0678C19.787 89.2418 19.7986 89.4158 19.8102 89.5898C19.8109 89.5998 19.8119 89.6108 19.8129 89.6208C19.8147 89.6398 19.8165 89.6598 19.8165 89.6788C19.8245 89.8098 19.8335 89.9398 19.8433 90.0688L19.8462 90.1088C19.8569 90.2528 19.8676 90.3968 19.8791 90.5408L19.8813 90.5688C19.8877 90.6528 19.8942 90.7368 19.9015 90.8178C19.9307 91.1718 19.9623 91.5258 19.9963 91.8798C20.0326 92.2468 20.0708 92.6138 20.1107 92.9788L20.1161 93.0238C20.1358 93.1998 20.1546 93.3678 20.1769 93.5528C20.1993 93.7378 20.2216 93.9228 20.2449 94.1078C20.2607 94.2338 20.2773 94.3588 20.2939 94.4848C20.3017 94.5438 20.3096 94.6028 20.3173 94.6618C20.3415 94.8468 20.3674 95.0318 20.3933 95.2158C20.413 95.3558 20.4336 95.4978 20.4542 95.6378C20.4658 95.7198 20.4783 95.8018 20.4908 95.8828L20.4949 95.9098C20.5142 96.0378 20.5334 96.1668 20.5534 96.2938C20.5588 96.3068 20.5588 96.3188 20.5588 96.3308C20.6184 96.6958 20.678 97.0568 20.7377 97.4148C20.8939 98.3268 21.0665 99.2328 21.2555 100.134C21.3705 100.674 21.4898 101.211 21.6132 101.744L21.6186 101.766C21.6292 101.811 21.6399 101.856 21.6505 101.901C21.6807 102.03 21.7109 102.158 21.742 102.286L21.7974 102.219C23.9975 99.5888 27.1536 98.1388 30.6844 98.1388C33.514 98.1388 36.4179 99.0748 39.3272 100.92C41.258 102.146 43.3918 104.317 45.5875 107.048C47.6194 104.226 50.4677 102.35 53.7256 101.838C54.3471 101.74 54.9749 101.691 55.6037 101.69C63.04 101.69 67.519 108.143 69.2107 113.948C70.0467 115.909 74.0757 124.841 80.1517 130.883C89.3877 140.11 91.6987 149.631 87.1277 159.826H87.1437C87.4547 159.861 87.7677 159.893 88.0827 159.922C88.2697 159.94 88.4557 159.958 88.6437 159.974L88.7097 159.98C88.8467 159.992 88.9847 160.004 89.1227 160.015L89.5027 160.045C89.8647 160.073 90.2277 160.099 90.5917 160.122L90.8807 160.139C90.9567 160.144 91.0327 160.148 91.1097 160.153C91.1567 160.155 91.2047 160.158 91.2517 160.161L91.6987 160.184L91.8207 160.189L92.2897 160.21L92.8117 160.23L93.2307 160.242C93.2547 160.243 93.2777 160.243 93.3007 160.244C93.3897 160.248 93.4787 160.251 93.5677 160.251C93.5997 160.252 93.6317 160.253 93.6637 160.254C93.7627 160.257 93.8637 160.26 93.9637 160.26C94.4527 160.27 94.9417 160.274 95.4327 160.274H96.0587L96.5057 160.269C96.6157 160.264 96.7247 160.264 96.8357 160.264H97.0097C97.0597 160.263 97.1097 160.262 97.1607 160.26C97.2197 160.258 97.2787 160.256 97.3387 160.256H97.5177L97.8687 160.247L98.3967 160.229L98.9777 160.203C99.1457 160.197 99.3117 160.188 99.4777 160.18L99.6567 160.169C99.7457 160.165 99.8337 160.16 99.9227 160.155C99.9747 160.152 100.027 160.148 100.079 160.146L100.197 160.138L100.734 160.103C100.912 160.091 101.091 160.077 101.27 160.064L101.757 160.025L102.099 159.996L102.475 159.962C102.86 159.926 103.243 159.888 103.626 159.848C103.869 159.822 104.111 159.794 104.355 159.765L104.782 159.714C100.283 149.562 102.612 140.082 111.809 130.892C117.872 124.834 121.901 115.902 122.741 113.94C124.434 108.136 128.91 101.683 136.348 101.683C136.977 101.683 137.606 101.733 138.227 101.831C141.482 102.343 144.33 104.219 146.365 107.041C148.562 104.311 150.695 102.138 152.626 100.912C155.535 99.0678 158.441 98.1318 161.268 98.1318C164.384 98.1318 167.208 99.2618 169.341 101.335C169.38 101.166 169.418 100.996 169.455 100.827C169.492 100.658 169.528 100.489 169.564 100.321C169.603 100.136 169.642 99.9508 169.679 99.7658C169.745 99.4388 169.811 99.1118 169.874 98.7818C169.94 98.4398 170.003 98.0958 170.063 97.7518C170.074 97.6898 170.084 97.6278 170.094 97.5658C170.113 97.4558 170.131 97.3458 170.152 97.2348C170.186 97.0628 170.214 96.8908 170.242 96.7168L170.253 96.6508C170.277 96.4998 170.301 96.3488 170.324 96.1978L170.394 95.7388V95.7348C170.423 95.5418 170.451 95.3488 170.478 95.1558C170.499 95.0108 170.519 94.8638 170.538 94.7178L170.549 94.6338L170.612 94.1558L170.663 93.7478C170.693 93.4808 170.723 93.2128 170.753 92.9438C170.765 92.8358 170.777 92.7278 170.788 92.6208L170.797 92.5328C170.816 92.3588 170.834 92.1848 170.85 92.0108C170.85 92.0068 170.85 92.0018 170.85 91.9968C170.863 91.8588 170.877 91.7198 170.889 91.5808C170.96 90.7928 171.02 90.0008 171.068 89.2058C171.077 89.0758 171.084 88.9448 171.092 88.8138V88.8078C171.101 88.6438 171.11 88.4808 171.118 88.3168L171.124 88.2068C171.131 88.0528 171.138 87.8968 171.144 87.7418C171.151 87.5668 171.158 87.3898 171.165 87.2108V87.1988C171.166 87.1558 171.168 87.1128 171.17 87.0688C171.175 86.9598 171.179 86.8498 171.179 86.7398L171.181 86.6958C171.185 86.5928 171.189 86.4868 171.189 86.3818C171.19 86.3518 171.191 86.3218 171.192 86.2918C171.195 86.1868 171.198 86.0828 171.198 85.9778C171.199 85.9488 171.199 85.9188 171.2 85.8888C171.203 85.7558 171.206 85.6218 171.206 85.4888V84.9998ZM76.6337 160.706C82.6357 151.905 82.2097 145.299 73.9757 137.069C65.74 128.838 60.9468 116.802 60.9468 116.802C60.9468 116.802 59.1581 109.811 55.0779 110.453C50.9982 111.095 48.0049 121.542 56.5476 127.937C65.0898 134.332 54.8484 138.668 51.5599 132.667C48.2714 126.665 39.2949 111.238 34.6409 108.287C29.9867 105.336 26.7135 106.99 27.8109 113.072C28.3555 116.091 33.4235 121.244 38.1584 126.058C42.9624 130.942 47.4236 135.478 46.4701 137.083C44.5769 140.27 37.9096 133.338 37.9096 133.338C37.9096 133.338 17.0342 114.34 12.4893 119.291C8.30048 123.854 14.7609 127.733 24.7162 133.712C25.563 134.22 26.435 134.744 27.3279 135.284C38.719 142.18 39.6044 143.999 37.9883 146.608C37.3909 147.572 33.5776 145.283 28.8884 142.468C20.8929 137.667 10.3506 131.338 8.86188 137.003C7.57338 141.906 15.3292 144.91 22.3635 147.635C28.2237 149.905 33.583 151.981 32.7949 154.799C31.978 157.721 27.549 155.284 22.7075 152.62C17.2723 149.629 11.3172 146.353 9.36888 150.05C5.68518 157.04 34.7795 165.269 35.0182 165.33C44.4183 167.768 68.2907 172.934 76.6337 160.706ZM115.299 160.706C109.297 151.905 109.723 145.299 117.958 137.069C126.193 128.838 130.986 116.802 130.986 116.802C130.986 116.802 132.775 109.811 136.855 110.453C140.935 111.095 143.928 121.542 135.386 127.937C126.843 134.332 137.085 138.668 140.373 132.667C143.662 126.665 152.633 111.238 157.287 108.287C161.941 105.336 165.216 106.99 164.118 113.072C163.574 116.091 158.505 121.244 153.77 126.059C148.966 130.943 144.505 135.478 145.458 137.083C147.351 140.27 154.023 133.334 154.023 133.334C154.023 133.334 174.898 114.337 179.444 119.288C183.633 123.85 177.172 127.73 167.215 133.709C166.369 134.217 165.498 134.741 164.605 135.281C153.214 142.177 152.328 143.996 153.944 146.604C154.542 147.569 158.355 145.279 163.044 142.464C171.04 137.664 181.582 131.334 183.071 137C184.36 141.903 176.603 144.907 169.569 147.632C163.709 149.902 158.349 151.978 159.137 154.796C159.953 157.717 164.381 155.28 169.221 152.616C174.656 149.625 180.612 146.347 182.56 150.047C186.244 157.041 157.146 165.262 156.911 165.322C147.511 167.768 123.639 172.934 115.299 160.706Z" fill="#FFD21E"/>
<path fill-rule="evenodd" clip-rule="evenodd" d="M120.042 63.882C121.224 64.3 122.104 65.572 122.94 66.783C124.07 68.419 125.122 69.942 126.736 69.084C128.64 68.071 130.201 66.517 131.222 64.617C132.243 62.717 132.677 60.5575 132.471 58.4109C132.264 56.2643 131.426 54.2271 130.061 52.5571C128.696 50.8871 126.867 49.6591 124.805 49.0284C122.742 48.3976 120.538 48.3928 118.473 49.0143C116.408 49.6358 114.573 50.8555 113.201 52.5197C111.829 54.1838 110.982 56.2171 110.766 58.3628C110.55 60.5089 110.976 62.671 111.988 64.575C112.736 65.982 114.395 65.318 116.147 64.617C117.52 64.068 118.951 63.496 120.042 63.882ZM68.6675 63.882C67.4857 64.3 66.6065 65.573 65.7703 66.783C64.6398 68.42 63.588 69.942 61.9741 69.084C60.0702 68.072 58.5091 66.517 57.4888 64.617C56.468 62.717 56.0337 60.558 56.2404 58.4114C56.4476 56.2648 57.286 54.2276 58.6506 52.5576C60.0152 50.8876 61.8443 49.6601 63.9067 49.0294C65.9692 48.3991 68.1725 48.3942 70.2375 49.0158C72.3025 49.6373 74.1365 50.857 75.5085 52.5206C76.8805 54.1848 77.7285 56.2181 77.9445 58.3638C78.1605 60.5094 77.7355 62.671 76.7235 64.575C75.9745 65.982 74.3145 65.318 72.5625 64.618C71.1885 64.068 69.7595 63.496 68.6675 63.882ZM112.095 110.633C120.238 104.218 123.229 93.744 123.229 87.292C123.229 82.192 119.798 83.797 114.305 86.517C114.202 86.567 114.098 86.619 113.994 86.67C108.952 89.167 102.241 92.492 94.8725 92.492C87.5035 92.492 80.7915 89.167 75.7505 86.669C70.0795 83.86 66.5221 82.098 66.5221 87.293C66.5221 93.949 69.7045 104.878 78.4385 111.227C79.5915 108.887 81.2145 106.811 83.2055 105.127C85.1975 103.444 87.5145 102.188 90.0135 101.441C90.8855 101.181 91.7835 102.682 92.7025 104.219C93.5895 105.701 94.4965 107.217 95.4185 107.217C96.4015 107.217 97.3665 105.723 98.3095 104.265C99.2945 102.74 100.255 101.255 101.184 101.552C101.455 101.638 101.724 101.731 101.99 101.829C106.318 103.436 109.91 106.567 112.095 110.633Z" fill="#32343D"/>
<path d="M112.093 110.632C107.852 113.974 102.215 116.215 94.8737 116.215C87.9767 116.215 82.5827 114.237 78.4387 111.226C79.5917 108.887 81.2147 106.81 83.2057 105.127C85.1977 103.443 87.5147 102.188 90.0137 101.44C91.7257 100.929 93.5407 107.216 95.4187 107.216C97.4287 107.216 99.3657 100.97 101.185 101.551C101.455 101.637 101.723 101.729 101.99 101.829C106.316 103.436 109.908 106.567 112.093 110.632Z" fill="#FF323D"/>
<path fill-rule="evenodd" clip-rule="evenodd" d="M49.1964 72.9548C48.0307 73.7348 46.6602 74.1498 45.2582 74.1498C44.3274 74.1498 43.4053 73.9668 42.545 73.6098C41.6847 73.2548 40.9034 72.7318 40.2451 72.0738C39.5868 71.4148 39.0648 70.6338 38.7087 69.7728C38.3526 68.9128 38.1695 67.9908 38.1699 67.0598C38.1702 65.6578 38.5862 64.2878 39.3653 63.1228C40.1445 61.9568 41.2517 61.0492 42.547 60.5128C43.842 59.9764 45.2674 59.8363 46.6422 60.1101C48.0171 60.3839 49.28 61.0589 50.2712 62.0508C51.2623 63.0418 51.9373 64.3048 52.2106 65.6798C52.4839 67.0548 52.3434 68.4798 51.8069 69.7748C51.2705 71.0698 50.3621 72.1768 49.1964 72.9548ZM150.609 72.9548C149.443 73.7348 148.072 74.1498 146.671 74.1498C145.74 74.1498 144.818 73.9668 143.958 73.6098C143.097 73.2548 142.316 72.7318 141.657 72.0738C140.999 71.4148 140.477 70.6338 140.121 69.7728C139.765 68.9128 139.582 67.9908 139.582 67.0598C139.583 65.6578 139.999 64.2878 140.778 63.1228C141.557 61.9568 142.664 61.0492 143.959 60.5128C145.255 59.9764 146.68 59.8363 148.055 60.1101C149.43 60.3839 150.693 61.0589 151.684 62.0508C152.675 63.0418 153.35 64.3048 153.623 65.6798C153.897 67.0548 153.756 68.4798 153.22 69.7748C152.683 71.0698 151.774 72.1768 150.609 72.9548Z" fill="#FFAD03"/>
</svg>
