<svg width="43" height="45" viewBox="0 0 43 45" fill="none" xmlns="http://www.w3.org/2000/svg">
<path d="M23.52 0C23.52 7.23333 26.6467 12.04 30.52 15.12C34.5333 18.2933 39.3867 19.7867 42.56 20.1133V24.1267C38.1887 24.6927 34.0481 26.4166 30.5667 29.12C28.2861 30.9088 26.4595 33.2102 25.2351 35.8373C24.0107 38.4644 23.4231 41.3432 23.52 44.24H19.04C19.04 37.0067 15.9133 32.2 12.04 29.12C8.54533 26.409 4.38761 24.6846 0 24.1267V20.1133C4.3713 19.5473 8.51191 17.8234 11.9933 15.12C14.2739 13.3312 16.1005 11.0298 17.3249 8.40272C18.5493 5.77561 19.1369 2.89679 19.04 0H23.52Z" fill="url(#paint0_linear_1500_12)"/>
<defs>
<linearGradient id="paint0_linear_1500_12" x1="9.00667" y1="10.1267" x2="31.2667" y2="35.6533" gradientUnits="userSpaceOnUse">
<stop stop-color="#FF0789"/>
<stop offset="0.63" stop-color="#21DE75"/>
<stop offset="1" stop-color="#FF8D00"/>
</linearGradient>
</defs>
</svg>
